<svg width="77" height="12" viewBox="0 0 77 12" fill="none" xmlns="http://www.w3.org/2000/svg">
<path d="M1.29626 11.4241C0.880258 11.4241 0.560258 11.3121 0.336258 11.0881C0.112258 10.8641 0.00025785 10.5441 0.00025785 10.1281V1.44007C0.00025785 1.02407 0.112258 0.704072 0.336258 0.480072C0.560258 0.256072 0.880258 0.144072 1.29626 0.144072H4.41626C6.34692 0.144072 7.83492 0.634738 8.88026 1.61607C9.93626 2.58674 10.4643 3.97341 10.4643 5.77607C10.4643 6.68274 10.3256 7.48807 10.0483 8.19207C9.78159 8.88541 9.39226 9.47207 8.88026 9.95207C8.36826 10.4321 7.73892 10.8001 6.99226 11.0561C6.24559 11.3014 5.38692 11.4241 4.41626 11.4241H1.29626ZM2.48026 9.39207H4.27226C4.88026 9.39207 5.40826 9.31741 5.85626 9.16807C6.30426 9.01874 6.67759 8.79474 6.97626 8.49607C7.27492 8.19741 7.49892 7.82407 7.64826 7.37607C7.79759 6.91741 7.87226 6.38407 7.87226 5.77607C7.87226 4.56007 7.56826 3.65874 6.96026 3.07207C6.36292 2.47474 5.46692 2.17607 4.27226 2.17607H2.48026V9.39207ZM13.6869 11.4241C13.2709 11.4241 12.9509 11.3121 12.7269 11.0881C12.5029 10.8641 12.3909 10.5441 12.3909 10.1281V1.44007C12.3909 1.02407 12.5029 0.704072 12.7269 0.480072C12.9509 0.256072 13.2709 0.144072 13.6869 0.144072H19.2709C19.5909 0.144072 19.8309 0.229405 19.9909 0.400072C20.1615 0.560072 20.2469 0.794738 20.2469 1.10407C20.2469 1.42407 20.1615 1.66941 19.9909 1.84007C19.8309 2.00007 19.5909 2.08007 19.2709 2.08007H14.7589V4.72007H18.9029C19.2335 4.72007 19.4789 4.80541 19.6389 4.97607C19.8095 5.13607 19.8949 5.37607 19.8949 5.69607C19.8949 6.01607 19.8095 6.26141 19.6389 6.43207C19.4789 6.59207 19.2335 6.67207 18.9029 6.67207H14.7589V9.48807H19.2709C19.5909 9.48807 19.8309 9.57341 19.9909 9.74407C20.1615 9.90407 20.2469 10.1387 20.2469 10.4481C20.2469 10.7681 20.1615 11.0134 19.9909 11.1841C19.8309 11.3441 19.5909 11.4241 19.2709 11.4241H13.6869ZM23.3424 11.4241C22.937 11.4241 22.6224 11.3121 22.3984 11.0881C22.185 10.8641 22.0784 10.5547 22.0784 10.1601V1.37607C22.0784 0.960072 22.185 0.645405 22.3984 0.432072C22.6117 0.218739 22.921 0.112072 23.3264 0.112072C23.721 0.112072 24.025 0.218739 24.2384 0.432072C24.4517 0.645405 24.5584 0.960072 24.5584 1.37607V9.32807H28.8464C29.1877 9.32807 29.449 9.41874 29.6304 9.60007C29.8224 9.78141 29.9184 10.0374 29.9184 10.3681C29.9184 10.7094 29.8224 10.9707 29.6304 11.1521C29.449 11.3334 29.1877 11.4241 28.8464 11.4241H23.3424ZM32.4983 11.5681C32.0929 11.5681 31.7836 11.4561 31.5703 11.2321C31.3569 11.0081 31.2503 10.6934 31.2503 10.2881V1.28007C31.2503 0.874738 31.3569 0.560072 31.5703 0.336072C31.7836 0.112072 32.0929 7.15256e-05 32.4983 7.15256e-05C32.8929 7.15256e-05 33.1969 0.112072 33.4103 0.336072C33.6236 0.560072 33.7303 0.874738 33.7303 1.28007V10.2881C33.7303 10.6934 33.6236 11.0081 33.4103 11.2321C33.2076 11.4561 32.9036 11.5681 32.4983 11.5681ZM40.6883 11.5681C40.3469 11.5681 40.0643 11.4934 39.8403 11.3441C39.6269 11.1841 39.4509 10.9441 39.3123 10.6241L35.2803 1.66407C35.1309 1.34407 35.0883 1.0614 35.1523 0.816072C35.2163 0.560072 35.3496 0.362738 35.5523 0.224072C35.7549 0.0747382 36.0003 7.15256e-05 36.2883 7.15256e-05C36.6509 7.15256e-05 36.9283 0.085405 37.1203 0.256072C37.3123 0.416072 37.4723 0.656072 37.6003 0.976071L41.1363 9.15207H40.3363L43.8723 0.960072C44.0109 0.640072 44.1763 0.400072 44.3683 0.240071C44.5603 0.0800714 44.8269 7.15256e-05 45.1683 7.15256e-05C45.4563 7.15256e-05 45.6909 0.0747382 45.8723 0.224072C46.0643 0.362738 46.1816 0.560072 46.2243 0.816072C46.2776 1.0614 46.2349 1.34407 46.0963 1.66407L42.0643 10.6241C41.9149 10.9441 41.7336 11.1841 41.5203 11.3441C41.3176 11.4934 41.0403 11.5681 40.6883 11.5681ZM48.9213 11.4241C48.5053 11.4241 48.1853 11.3121 47.9613 11.0881C47.7373 10.8641 47.6253 10.5441 47.6253 10.1281V1.44007C47.6253 1.02407 47.7373 0.704072 47.9613 0.480072C48.1853 0.256072 48.5053 0.144072 48.9213 0.144072H54.5053C54.8253 0.144072 55.0653 0.229405 55.2253 0.400072C55.3959 0.560072 55.4813 0.794738 55.4813 1.10407C55.4813 1.42407 55.3959 1.66941 55.2253 1.84007C55.0653 2.00007 54.8253 2.08007 54.5053 2.08007H49.9933V4.72007H54.1373C54.4679 4.72007 54.7133 4.80541 54.8733 4.97607C55.0439 5.13607 55.1293 5.37607 55.1293 5.69607C55.1293 6.01607 55.0439 6.26141 54.8733 6.43207C54.7133 6.59207 54.4679 6.67207 54.1373 6.67207H49.9933V9.48807H54.5053C54.8253 9.48807 55.0653 9.57341 55.2253 9.74407C55.3959 9.90407 55.4813 10.1387 55.4813 10.4481C55.4813 10.7681 55.3959 11.0134 55.2253 11.1841C55.0653 11.3441 54.8253 11.4241 54.5053 11.4241H48.9213ZM58.5608 11.5681C58.1554 11.5681 57.8461 11.4561 57.6328 11.2321C57.4194 11.0081 57.3128 10.6934 57.3128 10.2881V1.40807C57.3128 0.992072 57.4194 0.677405 57.6328 0.464071C57.8568 0.250738 58.1714 0.144072 58.5768 0.144072H62.4648C63.7234 0.144072 64.6941 0.448072 65.3768 1.05607C66.0594 1.66407 66.4008 2.51207 66.4008 3.60007C66.4008 4.30407 66.2461 4.91207 65.9368 5.42407C65.6274 5.93607 65.1794 6.33074 64.5928 6.60807C64.0168 6.88541 63.3074 7.02407 62.4648 7.02407L62.5928 6.75207H63.2488C63.6968 6.75207 64.0861 6.86407 64.4168 7.08807C64.7581 7.30141 65.0514 7.63207 65.2968 8.08007L66.2888 9.92007C66.4381 10.1867 66.5074 10.4481 66.4968 10.7041C66.4861 10.9601 66.3901 11.1681 66.2088 11.3281C66.0274 11.4881 65.7608 11.5681 65.4088 11.5681C65.0568 11.5681 64.7688 11.4934 64.5448 11.3441C64.3314 11.1947 64.1394 10.9654 63.9688 10.6561L62.4328 7.82407C62.2728 7.52541 62.0754 7.32274 61.8408 7.21607C61.6168 7.10941 61.3394 7.05607 61.0088 7.05607H59.7928V10.2881C59.7928 10.6934 59.6861 11.0081 59.4728 11.2321C59.2701 11.4561 58.9661 11.5681 58.5608 11.5681ZM59.7928 5.26407H62.0168C62.6781 5.26407 63.1741 5.13074 63.5048 4.86407C63.8461 4.59741 64.0168 4.19741 64.0168 3.66407C64.0168 3.14141 63.8461 2.74674 63.5048 2.48007C63.1741 2.2134 62.6781 2.08007 62.0168 2.08007H59.7928V5.26407ZM72.2328 11.5681C71.8274 11.5681 71.5181 11.4561 71.3048 11.2321C71.0914 11.0081 70.9848 10.6881 70.9848 10.2721V5.63207L71.4968 7.05607L67.7208 1.69607C67.5714 1.47207 67.5074 1.23207 67.5288 0.976071C67.5501 0.709405 67.6568 0.480072 67.8488 0.288072C68.0408 0.0960716 68.3128 7.15256e-05 68.6648 7.15256e-05C68.9208 7.15256e-05 69.1501 0.0640717 69.3528 0.192072C69.5661 0.320072 69.7688 0.522738 69.9608 0.800072L72.5208 4.49607H72.0088L74.5688 0.800072C74.7714 0.512072 74.9688 0.309405 75.1608 0.192072C75.3634 0.0640717 75.5981 7.15256e-05 75.8648 7.15256e-05C76.2061 7.15256e-05 76.4728 0.0907383 76.6648 0.272072C76.8568 0.442738 76.9581 0.661405 76.9688 0.928072C76.9794 1.18407 76.8888 1.45074 76.6968 1.72807L72.9688 7.05607L73.4648 5.63207V10.2721C73.4648 11.1361 73.0541 11.5681 72.2328 11.5681Z" fill="#0B0B0B"/>
</svg>
